<?xml version="1.0" encoding="utf-8"?>
<!-- Generator: Adobe Illustrator 18.1.1, SVG Export Plug-In . SVG Version: 6.00 Build 0)  -->
<!DOCTYPE svg PUBLIC "-//W3C//DTD SVG 1.1//EN" "http://www.w3.org/Graphics/SVG/1.1/DTD/svg11.dtd">
<svg version="1.1" id="Layer_1" xmlns="http://www.w3.org/2000/svg" xmlns:xlink="http://www.w3.org/1999/xlink" x="0px" y="0px"
	 viewBox="0 650 560 310" enable-background="new 0 650 560 310" xml:space="preserve">
<rect x="-4" y="645.2" fill="none" width="574.5" height="315"/>
<g opacity="0.3" enable-background="new    ">
	<g>
		<g>
			<defs>
				<rect id="SVGID_1_" x="-1.9" y="645.2" width="561.9" height="315"/>
			</defs>
			<clipPath id="SVGID_2_">
				<use xlink:href="#SVGID_1_"  overflow="visible"/>
			</clipPath>
			<g clip-path="url(#SVGID_2_)">
				<g>
					<polygon fill="#969696" points="480.4,584.5 561.1,621 480.4,657.5 					"/>
					<polygon fill="#B3B3B3" points="561.1,694.2 480.4,657.5 561.1,621 					"/>
					<polygon fill="#BCBCBC" points="480.4,657.5 561.1,694.2 480.4,730.8 					"/>
					<polygon fill="#BBBBBB" points="561.1,767.2 480.4,730.8 561.1,694.2 					"/>
					<polygon fill="#A6A6A6" points="480.4,730.8 561.1,767.2 480.4,803.8 					"/>
					<polygon fill="#9F9F9F" points="561.1,840.5 480.4,803.8 561.1,767.2 					"/>
					<polygon fill="#A4A4A4" points="480.4,803.8 561.1,840.5 480.4,877 					"/>
					<polygon fill="#A3A3A3" points="561.1,913.5 480.4,877 561.1,840.5 					"/>
					<polygon fill="#9C9C9C" points="480.4,877 561.1,913.5 480.4,950 					"/>
					<polygon fill="#9F9F9F" points="561.1,986.7 480.4,950 561.1,913.5 					"/>
					<polygon fill="#808080" points="480.4,950 561.1,986.7 480.4,1023.2 					"/>
					<polygon fill="#B1B1B1" points="480.4,657.5 399.7,621 480.4,584.5 					"/>
					<polygon fill="#BEBEBE" points="399.7,621 480.4,657.5 399.7,694.2 					"/>
					<polygon fill="#CFCFCF" points="480.4,730.8 399.7,694.2 480.4,657.5 					"/>
					<polygon fill="#C4C4C4" points="399.7,694.2 480.4,730.8 399.7,767.2 					"/>
					<polygon fill="#B2B2B2" points="480.4,803.8 399.7,767.2 480.4,730.8 					"/>
					<polygon fill="#A3A3A3" points="399.7,767.2 480.4,803.8 399.7,840.5 					"/>
					<polygon fill="#ADADAD" points="480.4,877 399.7,840.5 480.4,803.8 					"/>
					<polygon fill="#BABABA" points="399.7,840.5 480.4,877 399.7,913.5 					"/>
					<polygon fill="#C0C0C0" points="480.4,950 399.7,913.5 480.4,877 					"/>
					<polygon fill="#ADADAD" points="399.7,913.5 480.4,950 399.7,986.7 					"/>
					<polygon fill="#AFAFAF" points="480.4,1023.2 399.7,986.7 480.4,950 					"/>
					<polygon fill="#AFAFAF" points="319,584.5 399.7,621 319,657.5 					"/>
					<polygon fill="#C6C6C6" points="399.7,694.2 319,657.5 399.7,621 					"/>
					<polygon fill="#D5D5D5" points="319,657.5 399.7,694.2 319,730.8 					"/>
					<polygon fill="#D0D0D0" points="399.7,767.2 319,730.8 399.7,694.2 					"/>
					<polygon fill="#C6C6C6" points="319,730.8 399.7,767.2 319,803.8 					"/>
					<polygon fill="#898989" points="399.7,840.5 319,803.8 399.7,767.2 					"/>
					<polygon fill="#7C7C7C" points="319,803.8 399.7,840.5 319,877 					"/>
					<polygon fill="#949494" points="399.7,913.5 319,877 399.7,840.5 					"/>
					<polygon fill="#C3C3C3" points="319,877 399.7,913.5 319,950 					"/>
					<polygon fill="#C8C8C8" points="399.7,986.7 319,950 399.7,913.5 					"/>
					<polygon fill="#BCBCBC" points="319,950 399.7,986.7 319,1023.2 					"/>
					<polygon fill="#B1B1B1" points="319,657.5 238.2,621 319,584.5 					"/>
					<polygon fill="#C7C7C7" points="238.2,621 319,657.5 238.2,694.2 					"/>
					<polygon fill="#C3C3C3" points="319,730.8 238.2,694.2 319,657.5 					"/>
					<polygon fill="#D1D1D1" points="238.2,694.2 319,730.8 238.2,767.2 					"/>
					<polygon fill="#B2B2B2" points="319,803.8 238.2,767.2 319,730.8 					"/>
					<polygon fill="#6C6C6C" points="238.2,767.2 319,803.8 238.2,840.5 					"/>
					<polygon fill="#616161" points="319,877 238.2,840.5 319,803.8 					"/>
					<polygon fill="#959595" points="238.2,840.5 319,877 238.2,913.5 					"/>
					<polygon fill="#9B9B9B" points="319,950 238.2,913.5 319,877 					"/>
					<polygon fill="#A4A4A4" points="238.2,913.5 319,950 238.2,986.7 					"/>
					<polygon fill="#878787" points="319,1023.2 238.2,986.7 319,950 					"/>
					<polygon fill="#9A9A9A" points="157.5,584.5 238.2,621 157.5,657.5 					"/>
					<polygon fill="#959595" points="238.2,694.2 157.5,657.5 238.2,621 					"/>
					<polygon fill="#B1B1B1" points="157.5,657.5 238.2,694.2 157.5,730.8 					"/>
					<polygon fill="#B5B5B5" points="238.2,767.2 157.5,730.8 238.2,694.2 					"/>
					<polygon fill="#B7B7B7" points="157.5,730.8 238.2,767.2 157.5,803.8 					"/>
					<polygon fill="#ABABAB" points="238.2,840.5 157.5,803.8 238.2,767.2 					"/>
					<polygon fill="#9D9D9D" points="157.5,803.8 238.2,840.5 157.5,877 					"/>
					<polygon fill="#AFAFAF" points="238.2,913.5 157.5,877 238.2,840.5 					"/>
					<polygon fill="#979797" points="157.5,877 238.2,913.5 157.5,950 					"/>
					<polygon fill="#6E6E6E" points="238.2,986.7 157.5,950 238.2,913.5 					"/>
					<polygon fill="#5F5F5F" points="157.5,950 238.2,986.7 157.5,1023.2 					"/>
					<polygon fill="#646464" points="157.5,657.5 76.7,621 157.5,584.5 					"/>
					<polygon fill="#808080" points="76.7,621 157.5,657.5 76.7,694.2 					"/>
					<polygon fill="#959595" points="157.5,730.8 76.7,694.2 157.5,657.5 					"/>
					<polygon fill="#ACACAC" points="76.7,694.2 157.5,730.8 76.7,767.2 					"/>
					<polygon fill="#C3C3C3" points="157.5,803.8 76.7,767.2 157.5,730.8 					"/>
					<polygon fill="#C1C1C1" points="76.7,767.2 157.5,803.8 76.7,840.5 					"/>
					<polygon fill="#CBCBCB" points="157.5,877 76.7,840.5 157.5,803.8 					"/>
					<polygon fill="#B1B1B1" points="76.7,840.5 157.5,877 76.7,913.5 					"/>
					<polygon fill="#838383" points="157.5,950 76.7,913.5 157.5,877 					"/>
					<polygon fill="#6B6B6B" points="76.7,913.5 157.5,950 76.7,986.7 					"/>
					<polygon fill="#515151" points="157.5,1023.2 76.7,986.7 157.5,950 					"/>
					<polygon fill="#4F4F4F" points="-4,584.5 76.7,621 -4,657.5 					"/>
					<polygon fill="#585858" points="76.7,694.2 -4,657.5 76.7,621 					"/>
					<polygon fill="#8F8F8F" points="-4,657.5 76.7,694.2 -4,730.8 					"/>
					<polygon fill="#A1A1A1" points="76.7,767.2 -4,730.8 76.7,694.2 					"/>
					<polygon fill="#BCBCBC" points="-4,730.8 76.7,767.2 -4,803.8 					"/>
					<polygon fill="#B8B8B8" points="76.7,840.5 -4,803.8 76.7,767.2 					"/>
					<polygon fill="#BFBFBF" points="-4,803.8 76.7,840.5 -4,877 					"/>
					<polygon fill="#989898" points="76.7,913.5 -4,877 76.7,840.5 					"/>
					<polygon fill="#7D7D7D" points="-4,877 76.7,913.5 -4,950 					"/>
					<polygon fill="#5F5F5F" points="76.7,986.7 -4,950 76.7,913.5 					"/>
					<polygon fill="#4E4E4E" points="-4,950 76.7,986.7 -4,1023.2 					"/>
				</g>
				<g opacity="0.48">
					<polygon fill="#969696" points="478,616.5 566.8,653 478,689.5 					"/>
					<polygon fill="#B3B3B3" points="566.8,726.2 478,689.5 566.8,653 					"/>
					<polygon fill="#BCBCBC" points="478,689.5 566.8,726.2 478,762.7 					"/>
					<polygon fill="#BBBBBB" points="566.8,799.2 478,762.7 566.8,726.2 					"/>
					<polygon fill="#A6A6A6" points="478,762.7 566.8,799.2 478,835.8 					"/>
					<polygon fill="#9F9F9F" points="566.8,872.3 478,835.8 566.8,799.2 					"/>
					<polygon fill="#A4A4A4" points="478,835.8 566.8,872.3 478,908.8 					"/>
					<polygon fill="#A3A3A3" points="566.8,945.5 478,908.8 566.8,872.3 					"/>
					<polygon fill="#9C9C9C" points="478,908.8 566.8,945.5 478,982 					"/>
					<polygon fill="#9F9F9F" points="566.8,1018.5 478,982 566.8,945.5 					"/>
					<polygon fill="#B1B1B1" points="478,689.5 389.2,653 478,616.5 					"/>
					<polygon fill="#BEBEBE" points="389.2,653 478,689.5 389.2,726.2 					"/>
					<polygon fill="#CFCFCF" points="478,762.7 389.2,726.2 478,689.5 					"/>
					<polygon fill="#C4C4C4" points="389.2,726.2 478,762.7 389.2,799.2 					"/>
					<polygon fill="#B2B2B2" points="478,835.8 389.2,799.2 478,762.7 					"/>
					<polygon fill="#A3A3A3" points="389.2,799.2 478,835.8 389.2,872.3 					"/>
					<polygon fill="#ADADAD" points="478,908.8 389.2,872.3 478,835.8 					"/>
					<polygon fill="#BABABA" points="389.2,872.3 478,908.8 389.2,945.5 					"/>
					<polygon fill="#C0C0C0" points="478,982 389.2,945.5 478,908.8 					"/>
					<polygon fill="#ADADAD" points="389.2,945.5 478,982 389.2,1018.5 					"/>
					<polygon fill="#AFAFAF" points="300.3,616.5 389.2,653 300.3,689.5 					"/>
					<polygon fill="#C6C6C6" points="389.2,726.2 300.3,689.5 389.2,653 					"/>
					<polygon fill="#D5D5D5" points="300.3,689.5 389.2,726.2 300.3,762.7 					"/>
					<polygon fill="#D0D0D0" points="389.2,799.2 300.3,762.7 389.2,726.2 					"/>
					<polygon fill="#C6C6C6" points="300.3,762.7 389.2,799.2 300.3,835.8 					"/>
					<polygon fill="#898989" points="389.2,872.3 300.3,835.8 389.2,799.2 					"/>
					<polygon fill="#7C7C7C" points="300.3,835.8 389.2,872.3 300.3,908.8 					"/>
					<polygon fill="#949494" points="389.2,945.5 300.3,908.8 389.2,872.3 					"/>
					<polygon fill="#C3C3C3" points="300.3,908.8 389.2,945.5 300.3,982 					"/>
					<polygon fill="#C8C8C8" points="389.2,1018.5 300.3,982 389.2,945.5 					"/>
					<polygon fill="#B1B1B1" points="300.3,689.5 211.5,653 300.3,616.5 					"/>
					<polygon fill="#C7C7C7" points="211.5,653 300.3,689.5 211.5,726.2 					"/>
					<polygon fill="#C3C3C3" points="300.3,762.7 211.5,726.2 300.3,689.5 					"/>
					<polygon fill="#D1D1D1" points="211.5,726.2 300.3,762.7 211.5,799.2 					"/>
					<polygon fill="#B2B2B2" points="300.3,835.8 211.5,799.2 300.3,762.7 					"/>
					<polygon fill="#6C6C6C" points="211.5,799.2 300.3,835.8 211.5,872.3 					"/>
					<polygon fill="#616161" points="300.3,908.8 211.5,872.3 300.3,835.8 					"/>
					<polygon fill="#959595" points="211.5,872.3 300.3,908.8 211.5,945.5 					"/>
					<polygon fill="#9B9B9B" points="300.3,982 211.5,945.5 300.3,908.8 					"/>
					<polygon fill="#A4A4A4" points="211.5,945.5 300.3,982 211.5,1018.5 					"/>
					<polygon fill="#9A9A9A" points="122.8,616.5 211.5,653 122.8,689.5 					"/>
					<polygon fill="#959595" points="211.5,726.2 122.8,689.5 211.5,653 					"/>
					<polygon fill="#B1B1B1" points="122.8,689.5 211.5,726.2 122.8,762.7 					"/>
					<polygon fill="#B5B5B5" points="211.5,799.2 122.8,762.7 211.5,726.2 					"/>
					<polygon fill="#B7B7B7" points="122.8,762.7 211.5,799.2 122.8,835.8 					"/>
					<polygon fill="#ABABAB" points="211.5,872.3 122.8,835.8 211.5,799.2 					"/>
					<polygon fill="#9D9D9D" points="122.8,835.8 211.5,872.3 122.8,908.8 					"/>
					<polygon fill="#AFAFAF" points="211.5,945.5 122.8,908.8 211.5,872.3 					"/>
					<polygon fill="#979797" points="122.8,908.8 211.5,945.5 122.8,982 					"/>
					<polygon fill="#6E6E6E" points="211.5,1018.5 122.8,982 211.5,945.5 					"/>
					<polygon fill="#646464" points="122.8,689.5 33.9,653 122.8,616.5 					"/>
					<polygon fill="#808080" points="33.9,653 122.8,689.5 33.9,726.2 					"/>
					<polygon fill="#959595" points="122.8,762.7 33.9,726.2 122.8,689.5 					"/>
					<polygon fill="#ACACAC" points="33.9,726.2 122.8,762.7 33.9,799.2 					"/>
					<polygon fill="#C3C3C3" points="122.8,835.8 33.9,799.2 122.8,762.7 					"/>
					<polygon fill="#C1C1C1" points="33.9,799.2 122.8,835.8 33.9,872.3 					"/>
					<polygon fill="#CBCBCB" points="122.8,908.8 33.9,872.3 122.8,835.8 					"/>
					<polygon fill="#B1B1B1" points="33.9,872.3 122.8,908.8 33.9,945.5 					"/>
					<polygon fill="#838383" points="122.8,982 33.9,945.5 122.8,908.8 					"/>
					<polygon fill="#6B6B6B" points="33.9,945.5 122.8,982 33.9,1018.5 					"/>
					<polygon fill="#4F4F4F" points="-54.9,616.5 33.9,653 -54.9,689.5 					"/>
					<polygon fill="#585858" points="33.9,726.2 -54.9,689.5 33.9,653 					"/>
					<polygon fill="#8F8F8F" points="-54.9,689.5 33.9,726.2 -54.9,762.7 					"/>
					<polygon fill="#A1A1A1" points="33.9,799.2 -54.9,762.7 33.9,726.2 					"/>
					<polygon fill="#BCBCBC" points="-54.9,762.7 33.9,799.2 -54.9,835.8 					"/>
					<polygon fill="#B8B8B8" points="33.9,872.3 -54.9,835.8 33.9,799.2 					"/>
					<polygon fill="#BFBFBF" points="-54.9,835.8 33.9,872.3 -54.9,908.8 					"/>
					<polygon fill="#989898" points="33.9,945.5 -54.9,908.8 33.9,872.3 					"/>
					<polygon fill="#7D7D7D" points="-54.9,908.8 33.9,945.5 -54.9,982 					"/>
					<polygon fill="#5F5F5F" points="33.9,1018.5 -54.9,982 33.9,945.5 					"/>
				</g>
				<g opacity="0.26">
					<polygon fill="#BCBCBC" points="503.4,603.5 592.2,640.2 503.4,676.8 					"/>
					<polygon fill="#BBBBBB" points="592.2,713.2 503.4,676.8 592.2,640.2 					"/>
					<polygon fill="#A6A6A6" points="503.4,676.8 592.2,713.2 503.4,749.8 					"/>
					<polygon fill="#9F9F9F" points="592.2,786.5 503.4,749.8 592.2,713.2 					"/>
					<polygon fill="#A4A4A4" points="503.4,749.8 592.2,786.5 503.4,823 					"/>
					<polygon fill="#A3A3A3" points="592.2,859.5 503.4,823 592.2,786.5 					"/>
					<polygon fill="#9C9C9C" points="503.4,823 592.2,859.5 503.4,896.2 					"/>
					<polygon fill="#9F9F9F" points="592.2,932.7 503.4,896.2 592.2,859.5 					"/>
					<polygon fill="#808080" points="503.4,896.2 592.2,932.7 503.4,969.2 					"/>
					<polygon fill="#6B6B6B" points="592.2,1005.8 503.4,969.2 592.2,932.7 					"/>
					<polygon fill="#CFCFCF" points="503.4,676.8 414.6,640.2 503.4,603.5 					"/>
					<polygon fill="#C4C4C4" points="414.6,640.2 503.4,676.8 414.6,713.2 					"/>
					<polygon fill="#B2B2B2" points="503.4,749.8 414.6,713.2 503.4,676.8 					"/>
					<polygon fill="#A3A3A3" points="414.6,713.2 503.4,749.8 414.6,786.5 					"/>
					<polygon fill="#ADADAD" points="503.4,823 414.6,786.5 503.4,749.8 					"/>
					<polygon fill="#BABABA" points="414.6,786.5 503.4,823 414.6,859.5 					"/>
					<polygon fill="#C0C0C0" points="503.4,896.2 414.6,859.5 503.4,823 					"/>
					<polygon fill="#ADADAD" points="414.6,859.5 503.4,896.2 414.6,932.7 					"/>
					<polygon fill="#AFAFAF" points="503.4,969.2 414.6,932.7 503.4,896.2 					"/>
					<polygon fill="#939393" points="414.6,932.7 503.4,969.2 414.6,1005.8 					"/>
					<polygon fill="#D5D5D5" points="325.8,603.5 414.6,640.2 325.8,676.8 					"/>
					<polygon fill="#D0D0D0" points="414.6,713.2 325.8,676.8 414.6,640.2 					"/>
					<polygon fill="#C6C6C6" points="325.8,676.8 414.6,713.2 325.8,749.8 					"/>
					<polygon fill="#898989" points="414.6,786.5 325.8,749.8 414.6,713.2 					"/>
					<polygon fill="#7C7C7C" points="325.8,749.8 414.6,786.5 325.8,823 					"/>
					<polygon fill="#949494" points="414.6,859.5 325.8,823 414.6,786.5 					"/>
					<polygon fill="#C3C3C3" points="325.8,823 414.6,859.5 325.8,896.2 					"/>
					<polygon fill="#C8C8C8" points="414.6,932.7 325.8,896.2 414.6,859.5 					"/>
					<polygon fill="#BCBCBC" points="325.8,896.2 414.6,932.7 325.8,969.2 					"/>
					<polygon fill="#A9A9A9" points="414.6,1005.8 325.8,969.2 414.6,932.7 					"/>
					<polygon fill="#C3C3C3" points="325.8,676.8 237,640.2 325.8,603.5 					"/>
					<polygon fill="#D1D1D1" points="237,640.2 325.8,676.8 237,713.2 					"/>
					<polygon fill="#B2B2B2" points="325.8,749.8 237,713.2 325.8,676.8 					"/>
					<polygon fill="#6C6C6C" points="237,713.2 325.8,749.8 237,786.5 					"/>
					<polygon fill="#616161" points="325.8,823 237,786.5 325.8,749.8 					"/>
					<polygon fill="#959595" points="237,786.5 325.8,823 237,859.5 					"/>
					<polygon fill="#9B9B9B" points="325.8,896.2 237,859.5 325.8,823 					"/>
					<polygon fill="#A4A4A4" points="237,859.5 325.8,896.2 237,932.7 					"/>
					<polygon fill="#878787" points="325.8,969.2 237,932.7 325.8,896.2 					"/>
					<polygon fill="#939393" points="237,932.7 325.8,969.2 237,1005.8 					"/>
					<polygon fill="#B1B1B1" points="148.2,603.5 237,640.2 148.2,676.8 					"/>
					<polygon fill="#B5B5B5" points="237,713.2 148.2,676.8 237,640.2 					"/>
					<polygon fill="#B7B7B7" points="148.2,676.8 237,713.2 148.2,749.8 					"/>
					<polygon fill="#ABABAB" points="237,786.5 148.2,749.8 237,713.2 					"/>
					<polygon fill="#9D9D9D" points="148.2,749.8 237,786.5 148.2,823 					"/>
					<polygon fill="#AFAFAF" points="237,859.5 148.2,823 237,786.5 					"/>
					<polygon fill="#979797" points="148.2,823 237,859.5 148.2,896.2 					"/>
					<polygon fill="#6E6E6E" points="237,932.7 148.2,896.2 237,859.5 					"/>
					<polygon fill="#5F5F5F" points="148.2,896.2 237,932.7 148.2,969.2 					"/>
					<polygon fill="#4D4D4D" points="237,1005.8 148.2,969.2 237,932.7 					"/>
					<polygon fill="#959595" points="148.2,676.8 59.4,640.2 148.2,603.5 					"/>
					<polygon fill="#ACACAC" points="59.4,640.2 148.2,676.8 59.4,713.2 					"/>
					<polygon fill="#C3C3C3" points="148.2,749.8 59.4,713.2 148.2,676.8 					"/>
					<polygon fill="#C1C1C1" points="59.4,713.2 148.2,749.8 59.4,786.5 					"/>
					<polygon fill="#CBCBCB" points="148.2,823 59.4,786.5 148.2,749.8 					"/>
					<polygon fill="#B1B1B1" points="59.4,786.5 148.2,823 59.4,859.5 					"/>
					<polygon fill="#838383" points="148.2,896.2 59.4,859.5 148.2,823 					"/>
					<polygon fill="#6B6B6B" points="59.4,859.5 148.2,896.2 59.4,932.7 					"/>
					<polygon fill="#515151" points="148.2,969.2 59.4,932.7 148.2,896.2 					"/>
					<polygon fill="#3F3F3F" points="59.4,932.7 148.2,969.2 59.4,1005.8 					"/>
					<polygon fill="#8F8F8F" points="-29.4,603.5 59.4,640.2 -29.4,676.8 					"/>
					<polygon fill="#A1A1A1" points="59.4,713.2 -29.4,676.8 59.4,640.2 					"/>
					<polygon fill="#BCBCBC" points="-29.4,676.8 59.4,713.2 -29.4,749.8 					"/>
					<polygon fill="#B8B8B8" points="59.4,786.5 -29.4,749.8 59.4,713.2 					"/>
					<polygon fill="#BFBFBF" points="-29.4,749.8 59.4,786.5 -29.4,823 					"/>
					<polygon fill="#989898" points="59.4,859.5 -29.4,823 59.4,786.5 					"/>
					<polygon fill="#7D7D7D" points="-29.4,823 59.4,859.5 -29.4,896.2 					"/>
					<polygon fill="#5F5F5F" points="59.4,932.7 -29.4,896.2 59.4,859.5 					"/>
					<polygon fill="#4E4E4E" points="-29.4,896.2 59.4,932.7 -29.4,969.2 					"/>
					<polygon fill="#3B3B3B" points="59.4,1005.8 -29.4,969.2 59.4,932.7 					"/>
				</g>
			</g>
		</g>
	</g>
</g>
</svg>
