<?xml version="1.0" encoding="utf-8"?>
<!-- Generator: Adobe Illustrator 18.1.1, SVG Export Plug-In . SVG Version: 6.00 Build 0)  -->
<!DOCTYPE svg PUBLIC "-//W3C//DTD SVG 1.1//EN" "http://www.w3.org/Graphics/SVG/1.1/DTD/svg11.dtd">
<svg version="1.1" id="Layer_1" xmlns="http://www.w3.org/2000/svg" xmlns:xlink="http://www.w3.org/1999/xlink" x="0px" y="0px"
	 viewBox="0 338.7 1920 402.7" enable-background="new 0 338.7 1920 402.7" xml:space="preserve">
<g opacity="0.7">
	<g>
		<path fill="#FFFFFF" d="M160.6,423.3v-31.4H0v298.6h35.2V544.3h125.6v-30.6H35.2v-90.4H160.6z"/>
		<path fill="#FFFFFF" d="M209.1,658V391.8H172v298.6h147.2v-32.3H209.1V658z"/>
		<path fill="#FFFFFF" d="M473.3,383.3h-9.6l-131.2,307h38.5l38.3-92.7h118.9l38.1,92.7h41.9L473.3,383.3z M418.4,570.5l48.5-128.9
			l50.2,128.9H418.4z"/>
		<path fill="#FFFFFF" d="M769.2,564.9c-7.5-13.3-18.1-23.7-32.1-31.7l-76.6-28.3c-16.9-9-25.4-22.5-25.4-40.6
			c0-7.5,1.7-15,4.8-22.3c4.8-9,11-15.2,18.5-19.2c7.5-4,16.2-5.8,26.2-5.8c13.5,0,25.8,3.7,37.1,11.5c11.2,7.7,18.3,17.7,21.4,30
			l31.9-15c-4.6-14.2-12.5-26.2-23.9-35.8s-22.3-15.6-32.3-17.5c-10-2.1-16.2-3.1-18.7-3.3c-2.5-0.2-5.8-0.4-10-0.4
			c-10,0-21.2,1.2-34.2,3.7c-12.7,2.5-24.6,9.8-35.2,21.7c-10.8,11.9-17.1,23.1-19.2,33.7c-2.1,10.6-3.1,17.9-3.1,22.1
			c0,15.8,4.8,30,14.2,42.5c9.4,12.5,21.9,22.3,37.1,29.6l51.6,18.1c10.2,4.6,17.1,7.9,20.4,10c3.3,2.1,7.9,6.2,13.7,12.5
			c5.8,6.2,8.7,15.6,8.7,28.5c0,8.5-1.9,16.7-5.4,24.6c-3.5,7.7-8.5,14-14.6,18.5c-6,4.6-12.3,7.9-18.5,9.8
			c-6.2,2.1-12.7,2.9-19.2,2.9c-16.5,0-30.6-5.6-42.7-16.9s-18.1-25.4-18.1-42.3l-32.7,16.5c4,14,8.5,25.4,13.5,34.2
			c5,8.7,12.1,16.7,21.7,23.5c17.5,10.4,36.7,15.8,57.7,15.8c23.3,0,44.6-6.7,63.3-19.8c10.4-9.2,18.3-19.6,23.5-31.4
			c5.2-11.9,7.9-24.2,7.9-37.1C780.5,592.4,776.7,578.2,769.2,564.9z"/>
		<path fill="#FFFFFF" d="M994.6,391.8v118.3H829.2V391.8H794v298.6h35.2V541.4h165.3v148.9h35.2V391.8H994.6z"/>
	</g>
	<path fill="#FFFFFF" d="M1366.7,565.1c-6.7-11.2-16.5-19.6-29.8-25c-4.6-1.2-10.2-2.1-16.9-2.3c-6.7-0.2-10.4-0.4-11.5-0.4
		c-16.2,2.5-29.4,10.6-39.4,23.9c-10,13.5-14.8,28.1-14.8,44.4c0,10,1.9,19.2,5.4,27.5c3.7,8.3,10.4,16.5,20,24.2
		c9.6,7.7,21.7,11.7,35.8,11.7c11.9,0,22.7-2.9,32.5-9c9.6-6,17.1-14.6,22.5-25.8c3.7-9.8,5.6-20,5.6-30.6
		C1376.7,589,1373.4,576.3,1366.7,565.1z M1366.7,565.1c-6.7-11.2-16.5-19.6-29.8-25c-4.6-1.2-10.2-2.1-16.9-2.3
		c-6.7-0.2-10.4-0.4-11.5-0.4c-16.2,2.5-29.4,10.6-39.4,23.9c-10,13.5-14.8,28.1-14.8,44.4c0,10,1.9,19.2,5.4,27.5
		c3.7,8.3,10.4,16.5,20,24.2c9.6,7.7,21.7,11.7,35.8,11.7c11.9,0,22.7-2.9,32.5-9c9.6-6,17.1-14.6,22.5-25.8
		c3.7-9.8,5.6-20,5.6-30.6C1376.7,589,1373.4,576.3,1366.7,565.1z M1029.8,338.7v53.1h30.2v156.4c6.9-12.7,16.5-22.5,28.5-29.4
		c12.1-6.9,25.2-10.2,39.6-10.2c22.5,0,39.8,6.2,52.1,18.5c12.3,12.3,20.6,24.4,24.8,36c4.4,11.7,6.5,23.5,6.5,35.8
		c0,19-4.6,36.9-13.3,53.9c-8.5,13.3-19.2,23.7-32.5,31.2c-13.3,7.7-27.3,11.5-42.5,11.5c-8.1,0-15.6-1-22.5-3.3
		c-6.9-2.1-14-5.8-21-11c-3.3-3.1-6.7-6.5-9.8-10.4c-3.1-3.7-6.2-7.9-9-12.3l-0.8,32.1h-30.2v50.8H1920V338.7H1029.8z M1406.9,690.5
		h-28.7v-35.2c-6.5,12.5-16,22.5-29.2,29.6c-12.9,7.1-26.7,10.6-40.8,10.6c-7.1,0-14-0.8-20.6-2.3s-15-5.4-25.2-11.9
		c-10.2-6.5-19.4-17.1-27.3-32.1c-8.1-15-12.1-31-12.1-48.1c0-14.2,3.1-28.1,9.2-41.6c4.4-8.3,11.5-17.9,21-28.9
		c9.8-10.8,23.9-17.9,42.5-21.2c2.1,0,4.2-0.2,6.7-0.4c2.5-0.2,4.2-0.4,5.4-0.4c14.2,0,27.3,3.1,38.9,9.6
		c11.9,6.5,21.7,15.6,29.8,27.9V513h30.2v177.4H1406.9z M1572.7,679.6c-4.4,5.6-10.8,9.4-19.8,11.5c-8.7,1.9-18.3,2.9-28.5,2.9
		h-11.9c-19,0-35.8-4.4-50.6-12.9c-15-8.7-26.2-21.4-33.7-38.1c-5.8-14.6-8.7-28.9-8.7-43.1c0-13.5,2.7-26.2,7.9-38.1
		c5.2-11.9,12.9-22.3,22.7-31c10-8.7,21-14.8,33.3-18.1c12.3-3.3,25.6-5,39.8-5c16.7,0,32.1,4,46.6,11.9v30.6
		c-2.3,0.4-7.1-1.2-14.4-5c-7.3-3.7-12.9-6.2-16.7-7.1c-3.7-0.8-10-1.2-18.3-1.2c-9.4,0-18.3,1.5-26.7,4.4s-15.8,7.5-22.1,14
		c-12.7,14.8-19.2,30.6-19.2,47.3c0,13.3,4.2,26,12.3,38.1c2.1,2.5,4.4,5,7.1,7.7c2.7,2.7,5.8,5.2,9.4,7.9
		c11.7,7.1,24.4,10.6,38.3,10.6c9.4,0,19-1.9,28.3-5.4c5.8-4.6,12.1-9,18.7-12.9c3.1-1,5.2-1.2,6.5-0.8v32.1H1572.7z M1704.5,690.5
		l-91.4-90.8v90.6h-31V392.9h31v202.8l86-79.5h43.5l-91,80.6l101,93.9L1704.5,690.5z M1336.9,540.1c-4.6-1.2-10.2-2.1-16.9-2.3
		c-6.7-0.2-10.4-0.4-11.5-0.4c-16.2,2.5-29.4,10.6-39.4,23.9c-10,13.5-14.8,28.1-14.8,44.4c0,10,1.9,19.2,5.4,27.5
		c3.7,8.3,10.4,16.5,20,24.2c9.6,7.7,21.7,11.7,35.8,11.7c11.9,0,22.7-2.9,32.5-9c9.6-6,17.1-14.6,22.5-25.8
		c3.7-9.8,5.6-20,5.6-30.6c0-14.4-3.3-27.1-10-38.3C1360,553.8,1350.2,545.5,1336.9,540.1z M1097.6,665.7c10,2.7,17.3,4.2,22.3,4.2
		c10.4,0,19.8-2.9,28.3-8.5c8.5-5.8,16-13.7,22.9-24.4c4.8-9.8,7.3-20.8,7.3-33.3c0-17.9-5-33.5-15-46.9c-10-13.3-23.5-20-40.6-20
		h-8.1c-17.3,0-30.8,6.2-40.6,19c-9.8,12.7-14.6,27.9-14.6,45.4c0,15.6,3.7,29.6,11.5,41.9C1078.9,655.3,1087.7,662.8,1097.6,665.7z
		"/>
	<g>
		<path fill="#FFFFFF" d="M1029.6,391.8v298.6l0,0V391.8L1029.6,391.8z"/>
	</g>
</g>
</svg>
