<?xml version="1.0" encoding="utf-8"?>
<!-- Generator: Adobe Illustrator 18.1.1, SVG Export Plug-In . SVG Version: 6.00 Build 0)  -->
<!DOCTYPE svg PUBLIC "-//W3C//DTD SVG 1.1//EN" "http://www.w3.org/Graphics/SVG/1.1/DTD/svg11.dtd">
<svg version="1.1" id="Layer_1" xmlns="http://www.w3.org/2000/svg" xmlns:xlink="http://www.w3.org/1999/xlink" x="0px" y="0px"
	 viewBox="0 0 863.9 930.4" enable-background="new 0 0 863.9 930.4" xml:space="preserve">
<g>
	<path fill="#FFFFFF" d="M431.9,0C240,0,84.4,155.6,84.4,347.5S240,695,431.9,695c191.9,0,347.5-155.6,347.5-347.5S623.8,0,431.9,0z
		 M730.1,247.5c-37.5,46.1-109.2,126-188,171.6c12.5-28.4,12.5-85.8-1.6-115.2c-12-42.9-35.9-90.4-71.6-142.2
		c-36.9-53.4-77.9-98.3-101-122.1c20.7-4.3,42.1-6.5,64-6.5C570.6,33,688.3,122.8,730.1,247.5z M351.7,43.3
		c33.2,33.7,126.7,134.6,165.9,237.2c-27.8-17.1-74.9-30.7-103.5-26.8c-40.3-3.7-87.3-0.7-141,9.2c-3.5,0.7-7,1.3-10.4,2
		c-59.6,11.8-112.9,29.3-142.4,40C137.5,178,230.2,75.3,351.7,43.3z M117.4,347.5c0-9.1,0.4-18,1.2-26.9
		c43.7-16.1,163.1-55.9,268.2-53.9c-25.2,20.7-51.9,62.8-56.5,91.2c-14.8,40.4-23.5,90.5-25.9,150.2c-2,48.5,0.7,94.7,3.9,128.6
		C196.1,588.7,117.4,477.3,117.4,347.5z M431.9,662c-38.2,0-74.8-6.8-108.7-19.3c-5.9-59.2-11.2-163.6,11.4-249.9
		c12,25.8,31.9,49.1,59.4,69.8l0,0.1c0.1,0,0.2,0,0.3,0.1c37.6,28.1,89.6,51.4,155.6,69.5c42.9,11.8,84.7,19.2,117.3,23.9
		C609.6,621,525.5,662,431.9,662z M678,543.2c-61-8.2-161.4-27.2-237.8-68.5c20.3-2.3,44.4-10.7,64.2-21.4
		c44-16.9,91.5-48.7,142.2-95.4c35.9-33.1,66.7-67.8,88.5-94.1c7.3,26.6,11.3,54.7,11.3,83.6C746.3,421.5,720.8,489.5,678,543.2z"/>
	<g>
		<g>
			<path fill="#FFFFFF" d="M72.2,842.1H15.8v65.7H0V773.5h72.2v14.2H15.8v40.7h56.5V842.1z"/>
			<path fill="#FFFFFF" d="M143.6,907.8H77.4V773.5h16.7v119.8h49.6V907.8z"/>
			<path fill="#FFFFFF" d="M273.8,907.8l-18.8,0l-17.2-41.7h-53.5L167,907.8l-17.4,0l59-138.1h4.4L273.8,907.8z M232.6,853.9
				l-22.6-58l-21.8,58H232.6z"/>
			<path fill="#FFFFFF" d="M348.8,796.9l-14.3,6.7c-1.3-5.6-4.5-10.1-9.6-13.5c-5.1-3.4-10.6-5.2-16.7-5.2c-4.5,0-8.4,0.9-11.8,2.6
				c-3.4,1.8-6.2,4.6-8.4,8.6c-1.5,3.3-2.2,6.6-2.2,10c0,8.1,3.8,14.2,11.4,18.3l34.5,12.7c6.3,3.5,11.1,8.2,14.4,14.2
				c3.3,6,5,12.3,5,19.1c0,5.8-1.2,11.3-3.5,16.7c-2.4,5.3-5.9,10-10.6,14.1c-8.5,5.9-18,8.9-28.5,8.9c-9.4,0-18.1-2.4-26-7.1
				c-4.2-3.1-7.5-6.7-9.7-10.6c-2.2-3.9-4.3-9-6.1-15.3l14.7-7.4c0,7.6,2.7,14,8.2,19.1c5.4,5.1,11.9,7.6,19.2,7.6
				c2.9,0,5.8-0.5,8.6-1.4c2.8-0.9,5.6-2.4,8.3-4.4c2.7-2,4.9-4.8,6.5-8.3c1.6-3.5,2.5-7.2,2.5-11c0-5.8-1.3-10.1-3.9-12.8
				c-2.6-2.8-4.7-4.6-6.2-5.6c-1.5-1-4.6-2.5-9.2-4.5l-23.2-8.2c-6.9-3.3-12.5-7.7-16.7-13.3c-4.2-5.6-6.4-12-6.4-19.2
				c0-1.8,0.5-5.1,1.4-9.9c0.9-4.8,3.8-9.8,8.6-15.2c4.8-5.3,10.1-8.6,15.9-9.7c5.7-1.1,10.9-1.7,15.3-1.7c1.9,0,3.4,0.1,4.5,0.2
				c1.1,0.1,3.9,0.6,8.4,1.5c4.5,0.9,9.4,3.5,14.5,7.9C343.1,785.1,346.7,790.5,348.8,796.9z"/>
			<path fill="#FFFFFF" d="M463.3,907.8h-15.8v-67H373v67h-15.8V773.5H373v53.2h74.4v-53.2h15.8V907.8z"/>
		</g>
		<path fill="#FFFFFF" d="M615.1,851.4c-3-5.1-7.4-8.8-13.4-11.2c-2-0.6-4.6-0.9-7.5-1c-3-0.1-4.7-0.2-5.2-0.2
			c-7.3,1.1-13.2,4.8-17.7,10.8c-4.5,6-6.7,12.7-6.7,19.9c0,4.5,0.8,8.6,2.5,12.3c1.7,3.7,4.7,7.4,9,10.9c4.3,3.5,9.7,5.3,16.1,5.3
			c5.4,0,10.2-1.4,14.6-4.1c4.3-2.7,7.7-6.6,10.1-11.7c1.7-4.4,2.6-9,2.6-13.8C619.5,862.3,618,856.5,615.1,851.4z M615.1,851.4
			c-3-5.1-7.4-8.8-13.4-11.2c-2-0.6-4.6-0.9-7.5-1c-3-0.1-4.7-0.2-5.2-0.2c-7.3,1.1-13.2,4.8-17.7,10.8c-4.5,6-6.7,12.7-6.7,19.9
			c0,4.5,0.8,8.6,2.5,12.3c1.7,3.7,4.7,7.4,9,10.9c4.3,3.5,9.7,5.3,16.1,5.3c5.4,0,10.2-1.4,14.6-4.1c4.3-2.7,7.7-6.6,10.1-11.7
			c1.7-4.4,2.6-9,2.6-13.8C619.5,862.3,618,856.5,615.1,851.4z M463,749.4v25h14v69.5c4-5.7,7.4-10.1,12.8-13.2
			c5.5-3.1,11.3-4.6,17.7-4.6c10.1,0,17.9,2.8,23.4,8.3c5.5,5.6,9.3,11,11.2,16.2c2,5.2,2.9,10.6,2.9,16.1c0,8.5-2,16.6-6,24.3
			c-3.8,6-8.7,10.7-14.6,14.1c-6,3.4-12.3,5.2-19.1,5.2c-3.7,0-7-0.5-10.1-1.4c-3.1-1-6.3-2.6-9.5-4.9c-1.5-1.4-3-2.9-4.4-4.6
			c-1.4-1.7-2.8-3-4-4.9l-0.3,15.2h-14v21h401v-181H463z M633,909.4h-12v-17.3c-3,5.7-7.6,10.1-13.4,13.3
			c-5.9,3.2-12.3,4.8-18.8,4.8c-3.2,0-6.3-0.3-9.3-1c-3-0.7-6.8-2.5-11.4-5.3c-4.6-2.9-8.7-7.7-12.3-14.4c-3.6-6.8-5.4-14-5.4-21.7
			c0-6.4,1.4-12.7,4.1-18.8c1.9-3.8,5.1-8.1,9.5-13c4.4-4.9,10.7-8.1,19.1-9.6c0.9,0,1.9-0.1,3-0.2c1.1-0.1,1.9-0.2,2.5-0.2
			c6.4,0,12.5,1.4,17.8,4.3c5.3,2.9,9.7,7,13.7,12.5v-14.4h13V909.4z M708,903c-2,2.5-5,4.7-9,5.6c-4,0.9-8.4,1.8-12.9,1.8h-5.3
			c-8.5,0-16.1-2.4-22.8-6.3c-6.7-3.9-11.8-9.9-15.2-17.5c-2.6-6.5-4-13.1-4-19.5c0-6.1,1.2-11.8,3.6-17.2c2.3-5.4,5.8-10.1,10.3-14
			c4.5-3.9,9.5-6.7,15-8.2c5.5-1.5,11.7-2.2,18.1-2.2c7.5,0,14.3,1.8,21.3,5.3v13.7c-1,0.2-3.5-0.5-6.8-2.2
			c-3.3-1.7-6.1-2.8-7.8-3.2c-1.7-0.4-4.5-0.6-8.3-0.6c-4.2,0-8.2,0.7-12,2c-3.8,1.3-7.1,3.4-10,6.3c-5.7,6.7-8.6,13.8-8.6,21.3
			c0,6,1.9,11.7,5.5,17.2c0.9,1.1,2,2.3,3.2,3.4c1.2,1.1,2.6,2.3,4.2,3.6c5.3,3.2,11,4.8,17.2,4.8c4.2,0,8.6-0.8,12.8-2.5
			c2.6-2.1,5.5-4,8.4-5.8c1.4-0.5,2.1-0.6,3.1-0.4V903z M767.1,907.9L726,867.1v42.3h-13v-135h13v90.8l38.6-35.8l19.6,0.1
			l-40.9,36.2l45.5,42.2L767.1,907.9z M601.7,840.2c-2-0.6-4.6-0.9-7.5-1c-3-0.1-4.7-0.2-5.2-0.2c-7.3,1.1-13.2,4.8-17.7,10.8
			c-4.5,6-6.7,12.7-6.7,19.9c0,4.5,0.8,8.6,2.5,12.3c1.7,3.7,4.7,7.4,9,10.9c4.3,3.5,9.7,5.3,16.1,5.3c5.4,0,10.2-1.4,14.6-4.1
			c4.3-2.7,7.7-6.6,10.1-11.7c1.7-4.4,2.6-9,2.6-13.8c0-6.4-1.5-12.2-4.5-17.3C612.1,846.4,607.6,842.6,601.7,840.2z M494,896.7
			c4.5,1.3,7.8,1.9,10,1.9c4.7,0,9-1.3,12.7-3.9c3.8-2.6,7.2-6.2,10.3-10.9c2.2-4.4,3.3-9.2,3.3-14.8c0-8-2.2-14.4-6.7-20.4
			c-4.5-6-10.6-8.2-18.2-8.2h-3.6c-7.8,0-13.9,2-18.2,7.7c-4.4,5.7-6.5,12-6.5,19.9c0,7,1.7,13.2,5.2,18.7
			C485.6,892.2,489.6,895.4,494,896.7z"/>
	</g>
</g>
</svg>
